<?xml version="1.0" encoding="UTF-8"?>
<!DOCTYPE svg PUBLIC "-//W3C//DTD SVG 1.1//EN" "http://www.w3.org/Graphics/SVG/1.1/DTD/svg11.dtd">
<!-- Creator: CorelDRAW X7 -->
<svg xmlns="http://www.w3.org/2000/svg" xml:space="preserve" width="169.333mm" height="169.333mm" version="1.1" style="shape-rendering:geometricPrecision; text-rendering:geometricPrecision; image-rendering:optimizeQuality; fill-rule:evenodd; clip-rule:evenodd"
viewBox="0 0 16933 16933"
 xmlns:xlink="http://www.w3.org/1999/xlink">
 <defs>
  <style type="text/css">
   <![CDATA[
    .str1 {stroke:#FC5130;stroke-width:76.19}
    .str0 {stroke:#00B5AB;stroke-width:84.66;stroke-dasharray:169.320000 253.980000}
    .fil3 {fill:none}
    .fil0 {fill:none;fill-rule:nonzero}
    .fil2 {fill:#FC5130;fill-rule:nonzero}
    .fil1 {fill:url(#id0);fill-rule:nonzero}
   ]]>
  </style>
  <linearGradient id="id0" gradientUnits="userSpaceOnUse" x1="8466.67" y1="14776" x2="8466.67" y2="2157.29">
   <stop offset="0" style="stop-opacity:1; stop-color:#4CB8C4"/>
   <stop offset="1" style="stop-opacity:1; stop-color:#3DD1AC"/>
  </linearGradient>
 </defs>
 <g id="图层_x0020_1">
  <metadata id="CorelCorpID_0Corel-Layer"/>
  <path id="outer" class="fil0 str0" d="M8467 1456c986,4674 3943,7011 3943,9347 0,2337 -986,4674 -3943,4674 -2958,0 -3944,-2337 -3944,-4674 0,-2336 2958,-4673 3944,-9347z"/>
  <path id="inner" class="fil1" d="M8467 2157c887,4207 3549,6310 3549,8413 0,2103 -888,4206 -3549,4206 -2662,0 -3549,-2103 -3549,-4206 0,-2103 2661,-4206 3549,-8413z"/>
  <g>
   <path class="fil2" d="M8590 12545l11 -6 12 -5 12 -4 12 -3 12 -3 12 -3 12 -1 12 -1 12 -1 13 0 12 1 12 1 11 2 12 2 12 3 11 4 12 4 11 4 11 5 10 6 11 6 10 7 9 7 10 7 9 9 9 8 8 9 8 10 8 10 7 10 6 11 6 11 0 0 6 12 5 12 4 12 3 11 3 13 3 12 1 12 1 12 1 12 0 12 -1 12 -1 12 -2 12 -2 12 -3 11 -4 12 -4 11 -4 11 -5 11 -6 11 -6 10 -7 10 -7 10 -7 9 -9 10 -8 8 -9 9 -10 8 -10 7 -10 7 -11 7 -11 6 0 0 -12 5 -12 5 -11 4 -12 4 -12 3 -12 2 -13 2 -12 1 -12 0 -12 0 -12 0 -12 -2 -12 -1 -12 -3 -11 -3 -12 -3 -11 -4 -11 -5 -11 -5 -11 -5 -10 -7 -10 -6 -10 -7 -9 -8 -9 -8 -9 -9 -9 -9 -7 -9 -8 -10 -7 -11 -7 -10 -6 -12 0 0 -5 -11 -5 -12 -4 -12 -4 -12 -3 -12 -2 -12 -2 -12 -1 -12 0 -13 0 -12 0 -12 2 -12 1 -12 3 -11 3 -12 3 -11 4 -12 5 -11 5 -11 6 -10 6 -11 6 -10 7 -10 8 -9 8 -9 9 -9 9 -8 9 -8 10 -8 11 -7 11 -6 11 -6 0 0zm4221 -1487l84 14 0 0 -24 73 -43 70 -60 67 -75 66 -89 65 -103 64 -115 64 -126 64 -136 62 -146 63 -153 61 -160 62 -167 60 -170 60 -175 58 -177 58 -178 57 -179 55 -178 55 -176 53 -173 51 -168 50 -163 49 -157 46 -149 45 -141 43 -130 42 -120 39 -107 36 -94 35 -79 32 -63 29 -38 -76 68 -31 82 -33 96 -35 108 -38 121 -39 131 -41 141 -44 150 -45 157 -46 163 -49 168 -50 173 -52 176 -52 177 -55 178 -55 178 -57 176 -57 174 -59 170 -59 165 -60 159 -60 152 -61 143 -62 134 -62 124 -62 111 -61 98 -62 84 -61 69 -60 51 -58 34 -55 17 -51 0 0zm-883 -616l4 -85 42 3 42 3 43 3 43 5 44 5 44 5 44 7 44 7 44 9 43 9 43 11 42 12 41 14 41 14 39 17 38 18 36 19 35 22 34 23 31 26 29 28 27 30 24 32 22 34 18 37 15 39 12 42 8 44 5 46 0 48 -3 50 -7 53 -84 -14 7 -47 3 -44 -1 -42 -4 -39 -6 -36 -10 -34 -12 -32 -15 -29 -18 -28 -19 -27 -23 -24 -24 -23 -27 -22 -28 -20 -31 -19 -32 -18 -34 -16 -36 -15 -37 -13 -39 -13 -39 -11 -40 -10 -41 -9 -42 -8 -42 -8 -42 -6 -43 -5 -42 -5 -43 -4 -41 -4 -42 -3 -40 -2z"/>
  </g>
  <path class="fil3 str1" d="M5029 9787c-956,-1161 263,-1233 1390,-1325 399,-32 6014,-629 4617,-1521 -3,-2 -665,-191 -693,-183"/>
  <g>
   <path class="fil2" d="M8755 4657l12 67 0 0 -72 12 -78 12 -82 12 -88 14 -91 14 -94 14 -97 16 -98 17 -99 19 -100 20 -99 21 -98 23 -96 25 -93 27 -90 29 -86 31 -82 34 -75 36 -70 38 -62 41 -55 43 -46 46 -37 48 -28 50 -19 53 -9 57 2 60 14 65 26 70 40 76 54 80 69 86 -51 44 -73 -90 -58 -86 -43 -82 -29 -79 -16 -76 -2 -72 10 -69 23 -65 33 -60 43 -55 52 -52 60 -47 67 -44 74 -41 79 -37 84 -35 89 -32 92 -30 95 -27 98 -26 99 -23 101 -22 100 -20 100 -18 99 -17 97 -16 95 -15 91 -14 87 -14 83 -12 77 -12 71 -12 0 0zm3628 -1515l59 33 -62 98 -70 93 -78 89 -85 85 -91 81 -99 78 -104 73 -109 70 -114 66 -118 63 -123 60 -126 56 -128 54 -132 51 -133 47 -135 46 -135 42 -137 40 -136 38 -136 35 -135 33 -134 32 -131 29 -130 27 -127 26 -123 23 -120 23 -115 20 -111 20 -105 18 -100 17 -93 16 -12 -67 94 -16 99 -17 106 -18 110 -19 115 -21 119 -22 123 -24 126 -25 129 -27 131 -29 133 -31 135 -33 135 -36 135 -37 135 -40 135 -42 133 -44 132 -48 129 -50 127 -53 124 -55 121 -59 116 -62 112 -65 107 -68 101 -72 95 -75 89 -78 82 -82 75 -85 66 -89 59 -93zm147 -190l-59 512 -7 -12 -9 -11 -8 -11 -9 -11 -8 -10 -9 -10 -9 -9 -10 -10 -9 -8 -10 -9 -10 -8 -10 -8 -11 -8 -10 -7 -11 -7 -11 -6 -11 -6 -11 -6 -12 -5 -11 -5 -12 -5 -12 -5 -13 -4 -12 -3 -13 -4 -13 -3 -13 -2 -13 -3 -14 -2 -13 -1 -14 -2 -14 -1 0 0 411 -310z"/>
  </g>
 </g>
</svg>
