<?xml version="1.0" encoding="UTF-8"?>
<!DOCTYPE svg PUBLIC "-//W3C//DTD SVG 1.1//EN" "http://www.w3.org/Graphics/SVG/1.1/DTD/svg11.dtd">
<!-- Creator: CorelDRAW X7 -->
<svg xmlns="http://www.w3.org/2000/svg" xml:space="preserve" width="67.7332mm" height="67.7332mm" version="1.1" style="shape-rendering:geometricPrecision; text-rendering:geometricPrecision; image-rendering:optimizeQuality; fill-rule:evenodd; clip-rule:evenodd"
viewBox="0 0 6773 6773"
 xmlns:xlink="http://www.w3.org/1999/xlink">
 <defs>
  <style type="text/css">
   <![CDATA[
    .str0 {stroke:#05668D;stroke-width:84.66}
    .str1 {stroke:#F0F3BD;stroke-width:67.73;stroke-linecap:square;stroke-linejoin:round}
    .fil1 {fill:none}
    .fil0 {fill:#02C39A}
   ]]>
  </style>
 </defs>
 <g id="图层_x0020_1">
  <metadata id="CorelCorpID_0Corel-Layer"/>
  <path class="fil0 str0" d="M3387 169c1777,0 3217,1441 3217,3218 0,1777 -1440,3217 -3217,3217 -1777,0 -3218,-1440 -3218,-3217 0,-1777 1441,-3218 3218,-3218zm0 2371c467,0 846,379 846,847 0,467 -379,846 -846,846 -468,0 -847,-379 -847,-846 0,-468 379,-847 847,-847z"/>
  <line class="fil1 str1" x1="2788" y1="2788" x2="5546" y2= "1002" />
  <line class="fil1 str1" x1="2568" y1="3170" x2="4064" y2= "244" />
  <line class="fil1 str1" x1="2568" y1="3610" x2="2400" y2= "328" />
  <line class="fil1 str1" x1="2786" y1="3990" x2="1000" y2= "1232" />
  <line class="fil1 str1" x1="3165" y1="4210" x2="239" y2= "2714" />
  <line class="fil1 str1" x1="3602" y1="4210" x2="320" y2= "4378" />
  <line class="fil1 str1" x1="3979" y1="3992" x2="1220" y2= "5778" />
  <line class="fil1 str1" x1="4195" y1="3613" x2="2700" y2= "6539" />
  <line class="fil1 str1" x1="4193" y1="3176" x2="4360" y2= "6458" />
  <line class="fil1 str1" x1="3971" y1="2799" x2="5757" y2= "5557" />
  <line class="fil1 str1" x1="3589" y1="2582" x2="6515" y2= "4078" />
  <line class="fil1 str1" x1="3149" y1="2585" x2="6431" y2= "2418" />
  <line class="fil1 str1" x1="2769" y1="2807" x2="5527" y2= "1021" />
 </g>
</svg>
